<?xml version="1.0" encoding="utf-8"?>
<!-- Generator: Adobe Illustrator 26.2.1, SVG Export Plug-In . SVG Version: 6.00 Build 0)  -->
<svg version="1.1" id="Capa_1" xmlns="http://www.w3.org/2000/svg" xmlns:xlink="http://www.w3.org/1999/xlink" x="0px" y="0px"
	 viewBox="0 0 109.3 109.3" style="enable-background:new 0 0 109.3 109.3;" xml:space="preserve">
<style type="text/css">
	.st0{fill:#FFFFFF;}
	.st1{fill:none;}
</style>
<g>
	<path class="st0" d="M54.6,48.1L101,19.2c-0.5-0.1-1-0.1-1.5-0.1H9.8c-0.5,0-1,0.1-1.5,0.1L54.6,48.1z"/>
	<path class="st0" d="M57.6,59.3c-0.1,0-0.1,0.1-0.2,0.1c-0.1,0-0.1,0.1-0.2,0.1c-0.4,0.2-0.7,0.3-1.1,0.4H56
		c-0.4,0.1-0.8,0.2-1.3,0.2l0,0l0,0c-0.4,0-0.9-0.1-1.3-0.2h-0.1c-0.4-0.1-0.8-0.3-1.1-0.4c-0.1,0-0.1-0.1-0.2-0.1
		c-0.1,0-0.1-0.1-0.2-0.1L0.2,27.2C0.1,27.7,0,28.3,0,28.8v51.6c0,5.4,4.4,9.8,9.8,9.8h89.7c5.4,0,9.8-4.4,9.8-9.8V28.8
		c0-0.6-0.1-1.1-0.2-1.7L57.6,59.3z"/>
</g>
<rect class="st1" width="109.3" height="109.3"/>
</svg>
