<?xml version="1.0" encoding="utf-8"?>
<!-- Generator: Adobe Illustrator 26.2.1, SVG Export Plug-In . SVG Version: 6.00 Build 0)  -->
<svg version="1.1" id="Layer_1" xmlns="http://www.w3.org/2000/svg" xmlns:xlink="http://www.w3.org/1999/xlink" x="0px" y="0px"
	 viewBox="0 0 64 64" style="enable-background:new 0 0 64 64;" xml:space="preserve">
<style type="text/css">
	.st0{fill:#FFFFFF;}
	.st1{fill:none;}
</style>
<path class="st0" d="M32.1,0C14.3,0,0,14.3,0,32c0,15.1,10.5,27.8,24.7,31.1c-0.7-0.1-1.5-0.4-2.2-0.6v-7.4c0,0-1.2,0.4-2.8,0.4
	c-4.4,0-6.3-3.9-6.8-6c-0.2-1.2-1-2.3-1.8-3.1c-1-0.9-1.4-0.9-1.4-1.1c0-0.6,0.9-0.6,1.2-0.6c2,0,3.6,2.1,4.2,3.2
	c1.7,2.7,3.6,3.2,4.6,3.2c1.2,0,2.2-0.1,3-0.5c0.4-2.3,1.4-4.4,3.1-5.9c-7.5-1.5-12.8-5.8-12.8-12.8c0-3.6,1.5-6.9,3.8-9.6
	c-0.2-0.7-0.6-2.1-0.6-4.4c0-1.5,0.1-3.4,0.7-5.2c0,0,4.6,0,8.9,4.1c2-0.6,4.1-0.9,6.3-0.9c2.2,0,4.3,0.4,6.3,0.9
	c4.3-4.1,8.9-4.1,8.9-4.1c0.7,1.8,0.9,3.7,0.9,5.2c0,2.5-0.4,3.9-0.5,4.6c2.3,2.7,3.7,5.9,3.7,9.5c0,7-5.3,11.3-12.8,12.8
	c2,1.7,3.2,4.3,3.2,7.1v10.6c-0.7,0.2-1.5,0.4-2.2,0.6C53.4,59.7,64,47,64,31.9C64.1,14.3,49.8,0,32.1,0z M34.3,63.9
	C33.5,64,32.8,64,32.1,64C32.8,64,33.5,64,34.3,63.9z M39.2,63.1c-1.5,0.4-3,0.6-4.4,0.7C36.3,63.8,37.7,63.5,39.2,63.1z M32.1,64
	c-0.7,0-1.5,0-2.2-0.1C30.6,64,31.3,64,32.1,64z M29.3,63.9c-1.5-0.1-3-0.4-4.4-0.7C26.4,63.5,27.9,63.8,29.3,63.9z"/>
<rect class="st1" width="64" height="64"/>
</svg>
