<?xml version="1.0" encoding="utf-8"?>
<!-- Generator: Adobe Illustrator 26.2.1, SVG Export Plug-In . SVG Version: 6.00 Build 0)  -->
<svg version="1.1" id="Layer_1" xmlns="http://www.w3.org/2000/svg" xmlns:xlink="http://www.w3.org/1999/xlink" x="0px" y="0px"
	 viewBox="0 0 64 64" style="enable-background:new 0 0 64 64;" xml:space="preserve">
<style type="text/css">
	.st0{fill:url(#SVGID_1_);}
	.st1{fill:url(#SVGID_00000048466970517261263180000010586284770503967673_);}
	.st2{fill:url(#SVGID_00000168117607499030977370000007895909550068992900_);}
	.st3{fill:none;}
</style>
<linearGradient id="SVGID_1_" gradientUnits="userSpaceOnUse" x1="6.665" y1="1033.3818" x2="7.0563" y2="1079.1324" gradientTransform="matrix(1 0 0 1 0 -1014)">
	<stop  offset="0" style="stop-color:#FFFFFF"/>
	<stop  offset="1" style="stop-color:#FFFFFF"/>
</linearGradient>
<rect y="19.7" class="st0" width="13.7" height="44.3"/>
<linearGradient id="SVGID_00000178163349647498783360000017600822012346856603_" gradientUnits="userSpaceOnUse" x1="7.9359" y1="1013.9164" x2="8.0664" y2="1029.1261" gradientTransform="matrix(1 0 0 1 0 -1014)">
	<stop  offset="0" style="stop-color:#FFFFFF"/>
	<stop  offset="1" style="stop-color:#FFFFFF"/>
</linearGradient>
<ellipse style="fill:url(#SVGID_00000178163349647498783360000017600822012346856603_);" cx="8" cy="7.4" rx="8" ry="7.4"/>
<g>
	
		<linearGradient id="SVGID_00000017503483604355642270000005968744913653678251_" gradientUnits="userSpaceOnUse" x1="43.6187" y1="1033.6542" x2="43.2373" y2="1078.1746" gradientTransform="matrix(1 0 0 1 0 -1014)">
		<stop  offset="0" style="stop-color:#FFFFFF"/>
		<stop  offset="1" style="stop-color:#FFFFFF"/>
	</linearGradient>
	<path style="fill:url(#SVGID_00000017503483604355642270000005968744913653678251_);" d="M48,19.7h-1.1l0,0c-5,0-9.1,3.9-10.1,8.9
		h-0.2v-8.9H22.9V64h13.7V42.8v-3.7c0-1,0-1.7,0.2-2.7c0.7-3.2,3.4-5.7,6.6-5.7c3.9,0,6.9,3.2,6.9,7.4v1.5v3V64H64V41.6v-2v-2.7
		C64,27.3,56.9,19.7,48,19.7z"/>
</g>
<rect class="st3" width="64" height="64"/>
</svg>
